<?xml version="1.0" encoding="UTF-8"?>
<svg version="1.1" xmlns="http://www.w3.org/2000/svg" width="500" height="500">
<path d="M0 0 C165 0 330 0 500 0 C500 165 500 330 500 500 C335 500 170 500 0 500 C0 335 0 170 0 0 Z " fill="#FF9797" transform="translate(0,0)"/>
<path d="M0 0 C1.155 -0.020625 2.31 -0.04125 3.5 -0.0625 C11.02498171 -0.09647283 17.49746452 0.84739552 24.625 3.25 C25.52226807 3.55035156 26.41953613 3.85070312 27.34399414 4.16015625 C38.66179634 8.11076402 47.77480938 16.52880813 53.375 27.0625 C56.72364491 34.24606169 59.62595992 42.24232061 58.625 50.25 C57.56445312 51.91259766 57.56445312 51.91259766 55.625 53.25 C53.07312856 53.5481684 50.76997493 53.67066726 48.21875 53.6484375 C47.13708557 53.65274277 47.13708557 53.65274277 46.03356934 53.65713501 C44.51049005 53.65917452 42.9873845 53.65365247 41.46435547 53.64111328 C39.13319322 53.62505643 36.80376458 53.6409641 34.47265625 53.66015625 C32.99218367 53.6581738 31.51171218 53.65433007 30.03125 53.6484375 C29.3343103 53.65451019 28.63737061 53.66058289 27.91931152 53.6668396 C25.05545414 53.62522459 23.09606101 53.58057863 20.71264648 51.90795898 C19.06632053 49.39837435 18.73245926 46.87215638 18.1875 43.9375 C16.79163714 37.46184756 15.257717 33.3331133 9.94921875 29.1328125 C4.14551407 25.84563782 -1.89740205 26.45243708 -8.375 27.25 C-13.0582581 28.87325317 -15.59815808 31.03294766 -18.25 35.1875 C-18.62125 36.198125 -18.9925 37.20875 -19.375 38.25 C-19.7225383 39.13145691 -20.0700766 40.01291382 -20.42814636 40.92108154 C-21.54671987 44.85372734 -21.66290732 48.52395468 -21.6496582 52.57519531 C-21.65476913 53.38906204 -21.65988007 54.20292877 -21.66514587 55.04145813 C-21.67899571 57.72042284 -21.67808809 60.39912883 -21.67578125 63.078125 C-21.67967169 64.95131525 -21.68400708 66.82450463 -21.68876648 68.69769287 C-21.69621952 72.62157043 -21.69594477 76.54535802 -21.69067383 80.46923828 C-21.684891 85.47686565 -21.70178595 90.48412172 -21.7250185 95.49168777 C-21.73981457 99.36094283 -21.74061939 103.23010978 -21.73750877 107.09938812 C-21.73801939 108.94441206 -21.74320786 110.78944127 -21.75332069 112.63443756 C-22.18953289 130.09959212 -22.18953289 130.09959212 -13.95703125 144.91015625 C-9.20271235 148.93665349 -3.30340802 148.67717261 2.6484375 148.56640625 C8.22796806 147.97330654 11.96061929 145.86939745 15.9375 142 C19.45484723 136.26802673 20.69639228 130.88291225 21.625 124.25 C24.08502787 121.78997213 25.47293839 122.00447995 28.83166504 121.97210693 C29.88952209 121.97817963 29.88952209 121.97817963 30.96875 121.984375 C31.69364624 121.98246155 32.41854248 121.9805481 33.16540527 121.97857666 C34.69865262 121.97721513 36.2319115 121.98090936 37.76513672 121.98925781 C40.11582259 121.99995822 42.46574423 121.98936192 44.81640625 121.9765625 C46.30468919 121.9778841 47.79297166 121.98044651 49.28125 121.984375 C49.98648804 121.98032654 50.69172607 121.97627808 51.41833496 121.97210693 C56.39507514 122.02007514 56.39507514 122.02007514 58.625 124.25 C59.92878857 135.0528196 55.72577487 147.70326369 49.203125 156.3671875 C48.68234375 156.98851562 48.1615625 157.60984375 47.625 158.25 C47.12484375 158.87132812 46.6246875 159.49265625 46.109375 160.1328125 C37.53764576 169.74480014 23.34540977 174.52978483 10.77148438 175.46142578 C-9.28025428 176.34271675 -28.80134065 175.53658007 -44.75 161.9375 C-55.99445737 151.0708564 -60.66936374 137.65446434 -61.00610352 122.19458008 C-61.05035339 118.46876675 -61.03219646 114.7454065 -61.00390625 111.01953125 C-61.00473747 109.01087821 -61.00720635 107.00222526 -61.01121521 104.99357605 C-61.01405258 100.81231881 -60.99957146 96.63160336 -60.97192383 92.45043945 C-60.93777837 87.12486913 -60.94390145 81.80026168 -60.9625864 76.47464466 C-60.97321434 72.33672733 -60.9641673 68.19902942 -60.94920158 64.06113243 C-60.94406624 62.09858542 -60.9444442 60.13601506 -60.95074654 58.17347145 C-60.98434037 41.43942889 -59.22082677 27.28668271 -47.56640625 14.22265625 C-34.2780039 1.59729268 -17.39449685 0.07713746 0 0 Z " fill="#FFFEFE" transform="translate(321.375,164.75)"/>
<path d="M0 0 C0.72711182 0.00404846 1.45422363 0.00809692 2.20336914 0.01226807 C2.95046143 0.01035461 3.69755371 0.00844116 4.46728516 0.00646973 C6.04761085 0.00510809 7.62794772 0.00880307 9.20825195 0.01715088 C11.63135836 0.02785107 14.05372337 0.01725527 16.47680664 0.00445557 C18.01066245 0.00577717 19.54451779 0.00833957 21.07836914 0.01226807 C21.80548096 0.0082196 22.53259277 0.00417114 23.28173828 0 C28.41094553 0.04796946 28.41094553 0.04796946 30.64086914 2.27789307 C30.8719492 4.17559338 30.8719492 4.17559338 30.84510803 6.52818298 C30.83744116 7.85918518 30.83744116 7.85918518 30.82961941 9.2170763 C30.81381864 10.19064925 30.79801786 11.1642222 30.78173828 12.16729736 C30.77314569 13.19022983 30.76455309 14.21316229 30.75570011 15.2670927 C30.73607475 17.47088924 30.7119296 19.67464917 30.68376541 21.87835312 C30.64180719 25.20355214 30.61242658 28.52860765 30.58737183 31.85397339 C30.54202491 37.67491135 30.48521557 43.49567431 30.42510796 49.31647682 C30.36559299 55.13760235 30.31102852 60.95877421 30.25572217 66.77994096 C30.17124247 75.65421056 30.08473137 84.52845448 29.99267578 93.40264893 C29.92328099 100.09453754 29.85917448 106.78645859 29.7981739 113.47842979 C29.77408017 116.0194751 29.74814109 118.5605036 29.72033501 121.101511 C29.68196082 124.6261805 29.64980035 128.15085434 29.61914062 131.67559814 C29.60619461 132.72630997 29.5932486 133.77702179 29.57991028 134.85957336 C29.57287079 135.81354004 29.5658313 136.76750671 29.55857849 137.75038147 C29.55028235 138.58146329 29.54198622 139.41254511 29.53343868 140.26881123 C29.51080665 142.3501153 29.51080665 142.3501153 30.64086914 144.27789307 C31.60806633 144.29002335 31.60806633 144.29002335 32.59480286 144.30239868 C39.29436264 144.38832877 45.99362258 144.48782721 52.69287109 144.59527588 C55.19444755 144.63360426 57.69607986 144.66845025 60.19775391 144.69976807 C63.78967271 144.74533453 67.38120576 144.8033433 70.97290039 144.86383057 C72.09485306 144.87538177 73.21680573 144.88693298 74.37275696 144.89883423 C75.93403572 144.92863876 75.93403572 144.92863876 77.52685547 144.95904541 C78.44396805 144.97236908 79.36108063 144.98569275 80.3059845 144.99942017 C82.64086914 145.27789307 82.64086914 145.27789307 85.64086914 147.27789307 C86.01318359 149.49273682 86.01318359 149.49273682 86.00415039 152.21539307 C86.00318359 153.68105713 86.00318359 153.68105713 86.00219727 155.17633057 C85.98608398 156.19984619 85.9699707 157.22336182 85.95336914 158.27789307 C85.9565918 159.30140869 85.95981445 160.32492432 85.96313477 161.37945557 C85.90776075 169.01100146 85.90776075 169.01100146 83.64086914 171.27789307 C80.82011655 171.47656519 78.09752821 171.55058232 75.27563477 171.53668213 C74.41048752 171.54018677 73.54534027 171.54369141 72.65397644 171.54730225 C69.78494316 171.55612814 66.91615507 171.5502674 64.04711914 171.54351807 C62.05936638 171.54486447 60.07161394 171.54680479 58.0838623 171.54931641 C53.91419342 171.55226883 49.74461012 171.54796621 45.57495117 171.53863525 C40.22122638 171.52724067 34.8677021 171.53379951 29.51398468 171.54578018 C25.40828939 171.55299558 21.3026419 171.55071233 17.19694519 171.5455246 C15.22250851 171.54418721 13.24806753 171.5458389 11.27363586 171.5504837 C8.51767423 171.55554368 5.76204062 171.5478462 3.00610352 171.53668213 C2.18422043 171.54073059 1.36233734 171.54477905 0.51554871 171.5489502 C-5.1306028 171.50642113 -5.1306028 171.50642113 -7.35913086 169.27789307 C-7.61081314 166.42928314 -7.61081314 166.42928314 -7.61309814 162.71087646 C-7.61621813 162.0286255 -7.61933811 161.34637454 -7.62255263 160.64344931 C-7.63056048 158.34638037 -7.6241983 156.04957357 -7.61791992 153.75250244 C-7.62062855 152.11015162 -7.62418876 150.46780201 -7.62854004 148.82545471 C-7.63768156 144.35654299 -7.63411256 139.88772329 -7.62778187 135.41880989 C-7.62273097 130.74988678 -7.62741078 126.08097174 -7.6305542 121.41204834 C-7.63419651 113.57027771 -7.62938781 105.72854471 -7.61987305 97.88677979 C-7.60898799 88.81064828 -7.61251338 79.73460663 -7.62352586 70.65847731 C-7.6325912 62.87672133 -7.63388771 55.09499245 -7.62864852 47.3132329 C-7.62552467 42.66078753 -7.62513082 38.00838445 -7.6317215 33.35594177 C-7.63748342 28.98277248 -7.63351934 24.60971942 -7.62193298 20.23656273 C-7.61928019 18.62807089 -7.62006198 17.01956933 -7.62445831 15.41108131 C-7.62989097 13.22222371 -7.62310783 11.03374299 -7.61309814 8.84490967 C-7.61196707 7.00429836 -7.61196707 7.00429836 -7.61081314 5.12650299 C-7.15160909 -0.07089595 -4.63570873 0.04335415 0 0 Z " fill="#FFFEFE" transform="translate(149.359130859375,166.72210693359375)"/>
</svg>
